<svg width="101" height="100" viewBox="0 0 101 100" fill="none" xmlns="http://www.w3.org/2000/svg">
<g id="Frame 1">
<g id="Icon">
<path id="Vector" d="M50.3999 100C78.0141 100 100.4 77.6142 100.4 50C100.4 22.3858 78.0141 0 50.3999 0C22.7857 0 0.399902 22.3858 0.399902 50C0.399902 77.6142 22.7857 100 50.3999 100Z" fill="#B00000" fill-opacity="0.15"/>
<path id="Vector_2" d="M43.642 75.601C43.8617 75.6965 44.0986 75.7459 44.3382 75.7462C45.0499 75.7445 45.6907 75.3139 45.9606 74.6554L47.3846 71.2142C49.117 71.4509 50.8737 71.4484 52.6054 71.2068L54.0354 74.6512C54.2113 75.0842 54.5531 75.4289 54.9847 75.6084C55.4163 75.7878 55.9017 75.7872 56.3328 75.6066L62.2851 73.1387C62.7246 72.9582 63.0731 72.6085 63.2521 72.1683C63.4275 71.743 63.4231 71.2648 63.24 70.8427L61.8161 67.3932C63.2096 66.3378 64.4522 65.0967 65.5091 63.7044L68.9383 65.1237C69.3705 65.3105 69.8597 65.3156 70.2957 65.1378C70.7316 64.96 71.0778 64.6143 71.2561 64.1785L73.7274 58.2187C73.9053 57.789 73.9065 57.3065 73.7306 56.876C73.5551 56.4408 73.2109 56.0951 72.7765 55.9177L70.3352 54.9013L30.5577 54.5386L27.1917 55.926C26.3089 56.3052 25.8974 57.3257 26.2703 58.2112L28.7315 64.1821C28.9107 64.6104 29.2523 64.9502 29.6814 65.1273C30.1108 65.3085 30.5951 65.3093 31.0251 65.1296L34.4774 63.7038C35.5362 65.0971 36.779 66.3403 38.1718 67.3996L36.7564 70.8212C36.5664 71.2487 36.5587 71.735 36.7351 72.1682C36.9137 72.6072 37.2609 72.9563 37.6989 73.1371L43.642 75.601Z" stroke="#B00000" stroke-width="3"/>
<path id="Vector_3" d="M69.4716 55.2471H69.4708H33.8489C27.8572 55.2471 23 50.3898 23 44.3981C23 38.4064 27.8572 33.5492 33.8489 33.5492C33.9245 33.5492 33.992 33.5497 34.055 33.5511L35.0616 33.574L35.4641 32.6512C37.4908 28.0042 42.0787 25 47.1484 25C52.2182 25 56.806 28.0042 58.8328 32.6512L59.2159 33.5295L60.1739 33.5511C63.8845 33.6348 67.2019 35.885 68.6517 39.3017L69.014 40.1557L69.9399 40.213C73.9981 40.4638 77.1229 43.8932 76.9963 47.9571C76.8697 52.021 73.5375 55.2493 69.4716 55.2471Z" stroke="#B00000" stroke-width="3"/>
<path id="Vector_4" d="M49.9961 65.5468H49.9981C55.998 65.523 61.37 61.824 63.5326 56.2274C63.6898 55.8261 63.6197 55.3713 63.3489 55.0359C63.078 54.7004 62.6479 54.5361 62.2223 54.6055C61.797 54.6748 61.4416 54.9668 61.2911 55.3705C59.5028 60.0534 55.01 63.1471 49.9971 63.1471C44.9842 63.1471 40.4914 60.0534 38.7031 55.3704C38.5526 54.9668 38.1972 54.6748 37.7719 54.6055C37.3463 54.5361 36.9162 54.7004 36.6453 55.0359C36.3745 55.3713 36.3044 55.8261 36.4616 56.2273C38.6242 61.824 43.9962 65.523 49.9961 65.5468Z" fill="#B00000" stroke="#B00000" stroke-width="0.5"/>
</g>
</g>
</svg>
