<svg width="101" height="100" viewBox="0 0 101 100" fill="none" xmlns="http://www.w3.org/2000/svg">
<g id="icn1 1" clip-path="url(#clip0_2_258)">
<path id="Vector" d="M50.3999 100C78.0141 100 100.4 77.6142 100.4 50C100.4 22.3858 78.0141 0 50.3999 0C22.7857 0 0.399902 22.3858 0.399902 50C0.399902 77.6142 22.7857 100 50.3999 100Z" fill="#B00000" fill-opacity="0.15"/>
<path id="Vector_2" d="M36.2998 23.8868C42.5845 20.5497 49.8769 19.6398 56.789 21.3301C63.7011 23.0205 69.7504 27.1933 73.7858 33.0542C77.8211 38.9151 79.5608 46.0552 78.6736 53.1155C77.7865 60.1757 74.3345 66.6634 68.9747 71.3439C63.6148 76.0243 56.7212 78.5707 49.6057 78.4985C42.4903 78.4263 35.6497 75.7406 30.3859 70.9524C25.1221 66.1642 21.8024 59.6078 21.0587 52.531C20.315 45.4541 22.1992 38.3509 26.3526 32.573" stroke="#B00000" stroke-width="3" stroke-linecap="round" stroke-linejoin="round"/>
<path id="Vector_3" d="M34.8775 24.1659L36.822 19.9624" stroke="#B00000" stroke-width="2" stroke-linecap="round" stroke-linejoin="round"/>
<path id="Vector_4" d="M34.876 23.874L38.9885 25.5302" stroke="#B00000" stroke-width="2" stroke-linecap="round" stroke-linejoin="round"/>
<path id="Vector_5" d="M49.8998 72.1268C62.3963 72.1268 72.5267 61.9964 72.5267 49.4999C72.5267 37.0035 62.3963 26.873 49.8998 26.873C37.4033 26.873 27.2729 37.0035 27.2729 49.4999C27.2729 61.9964 37.4033 72.1268 49.8998 72.1268Z" stroke="#B00000" stroke-width="3"/>
<path id="Vector_6" d="M49.8999 30.4521H49.8999C49.1986 30.4521 48.6301 31.0207 48.6301 31.722V33.4151C48.6301 34.1164 49.1986 34.6849 49.8999 34.6849H49.8999C50.6012 34.6849 51.1698 34.1164 51.1698 33.4151V31.722C51.1698 31.0207 50.6012 30.4521 49.8999 30.4521Z" fill="#B00000"/>
<path id="Vector_7" d="M49.9005 64.3145H49.9004C49.1991 64.3145 48.6306 64.883 48.6306 65.5843V67.2774C48.6306 67.9787 49.1991 68.5472 49.9004 68.5472H49.9005C50.6018 68.5472 51.1703 67.9787 51.1703 67.2774V65.5843C51.1703 64.883 50.6018 64.3145 49.9005 64.3145Z" fill="#B00000"/>
<path id="Vector_8" d="M68.9473 49.4998V49.4998C68.9473 48.7985 68.3788 48.23 67.6775 48.23H65.9843C65.283 48.23 64.7145 48.7985 64.7145 49.4998V49.4998C64.7145 50.2011 65.283 50.7696 65.9843 50.7696H67.6775C68.3788 50.7696 68.9473 50.2011 68.9473 49.4998Z" fill="#B00000"/>
<path id="Vector_9" d="M35.0852 49.4998V49.4998C35.0852 48.7985 34.5167 48.23 33.8154 48.23H32.1223C31.4209 48.23 30.8524 48.7985 30.8524 49.4998V49.4998C30.8524 50.2011 31.4209 50.7696 32.1223 50.7696H33.8154C34.5167 50.7696 35.0852 50.2011 35.0852 49.4998Z" fill="#B00000"/>
<path id="Vector_10" d="M43.3008 49.6328L47.9813 54.1822L57.6997 44.7361" stroke="#B00000" stroke-width="3" stroke-linecap="round" stroke-linejoin="round"/>
</g>
<defs>
<clipPath id="clip0_2_258">
<rect width="101" height="100" fill="white"/>
</clipPath>
</defs>
</svg>
