<svg width="125" height="54" viewBox="0 0 125 54" fill="none" xmlns="http://www.w3.org/2000/svg">
<g id="litespeed-logo 1">
<path id="Vector" d="M34.2995 13.4392V36.0211C34.2995 36.2328 34.3954 36.4125 34.5178 36.431C35.2124 36.5297 35.9841 36.5297 36.7948 36.431C37.4565 36.3432 38.2637 36.1812 39.2606 35.934C39.2243 36.2792 39.2064 36.6519 39.2064 37.0545C39.2064 37.3971 39.2269 37.8136 39.2656 38.2646H31.4204V13.4437C31.5699 13.4662 31.7627 13.5067 32.0011 13.5624C32.3493 13.6646 32.7066 13.6671 32.9195 13.5697L33.6252 13.5643C33.8937 13.5015 34.1159 13.4578 34.2995 13.4392ZM43.7035 14.6741C43.285 14.7742 43.0062 14.7762 42.8052 14.6795H42.0995C41.8501 14.6211 41.6597 14.5838 41.5163 14.5601V38.2644H44.2475V14.5547C44.0903 14.5754 43.9115 14.6143 43.7035 14.6741ZM46.4086 14.5374C46.435 14.8738 46.4482 15.2102 46.4482 15.539C46.4482 15.9716 46.4357 16.3535 46.4125 16.6799H46.8686C48.161 16.3999 49.2462 16.2568 50.0783 16.2568C50.2116 16.2568 50.3187 16.4406 50.3187 16.6665V38.2646H52.9682V16.6665C52.9682 16.4404 53.0758 16.2568 53.2082 16.2568C53.8137 16.2568 54.6802 16.3522 55.7852 16.5393C56.0648 16.6083 56.3614 16.652 56.6706 16.672C56.6393 16.3444 56.6393 15.9689 56.6718 15.549C56.6377 15.2141 56.6393 14.874 56.678 14.5376H46.4086V14.5374ZM58.8516 14.5374V38.2646H66.334C66.2975 37.8372 66.2781 37.4466 66.2781 37.1238C66.2781 36.7544 66.2948 36.4085 66.3249 36.0918C65.8156 36.2246 65.2483 36.3306 64.6397 36.4019C63.9319 36.4995 62.957 36.5468 61.7403 36.5468C61.6081 36.5468 61.501 36.3623 61.501 36.1346V26.9645C61.501 26.7389 61.6081 26.5546 61.7403 26.5546H63.7426C64.4098 26.6213 64.9459 26.6886 65.483 26.7548L65.8794 26.8019C65.8678 26.7112 65.8548 26.6088 65.8403 26.5003L65.833 24.85C65.833 24.8036 65.8369 24.7585 65.8462 24.7187C65.8513 24.6869 65.8571 24.6537 65.8629 24.6232C65.1577 24.7731 64.5131 24.8361 63.7427 24.8361H61.7404C61.6082 24.8361 61.5011 24.6516 61.5011 24.4255V16.6665C61.5011 16.4404 61.6082 16.2568 61.7404 16.2568C63.2173 16.2568 64.7682 16.4213 66.353 16.7475C66.3031 16.3733 66.2781 16.0139 66.2781 15.6797C66.2781 15.2819 66.303 14.8984 66.3538 14.5374H58.8516ZM77.5986 30.9746C77.5412 28.0423 76.2261 25.4403 73.682 23.2602C71.7965 21.5962 70.8815 19.9791 70.8815 18.3221C70.8815 15.6499 71.795 14.1827 73.5241 14.0759C74.7006 14.0759 75.6057 15.1557 76.2187 17.2902C76.2828 16.9147 76.3724 16.4347 76.4885 15.831C76.6302 15.1916 76.7502 14.6552 76.8507 14.2121C75.9466 13.2895 74.8563 12.7747 73.6088 12.6846C70.4701 12.969 68.8869 15.4459 68.7782 20.2551C68.7782 23.4952 69.9768 26.0974 72.3416 27.9804C74.3185 29.5191 75.3198 31.2829 75.3198 33.2166C75.1944 35.9342 74.249 37.3577 72.5074 37.4648C70.7845 37.3622 69.7066 35.9728 69.2974 33.334H69.2668C69.1565 34.7679 68.9809 36.1839 68.7451 37.5458C69.7933 38.2255 70.8816 38.6168 71.982 38.7079C75.4579 38.7071 77.3769 35.8862 77.5986 30.9746ZM82.1747 27.5596C82.1332 27.5644 82.0728 27.5826 82.0225 27.6675C81.9787 27.7425 81.9532 27.8444 81.9532 27.9491V38.2644H79.2035V14.5335H84.157C86.9931 14.5335 88.3985 16.3906 88.4508 20.2064C88.4713 22.283 88.1379 23.9358 87.4611 25.1166C86.5293 26.743 84.8984 27.5674 82.6137 27.5674C82.4732 27.5674 82.3331 27.5639 82.1747 27.5596ZM82.1499 26.3634C82.2557 26.3898 82.3698 26.4039 82.4852 26.4039C82.8231 26.4039 83.213 26.2921 83.6425 26.0726C84.8903 25.461 85.5833 23.7226 85.6999 20.8797C85.5833 17.6747 84.8476 15.8918 83.4977 15.5808H82.1831C82.0567 15.5808 81.9532 15.7578 81.9532 15.9741V25.9769C81.9532 26.1711 82.0368 26.337 82.1499 26.3634ZM99.4497 14.5335V38.2644H106.945C106.909 37.8333 106.89 37.4359 106.89 37.1052C106.89 36.7292 106.905 36.3761 106.938 36.055C106.423 36.1903 105.852 36.2986 105.242 36.3702C104.528 36.4664 103.582 36.5124 102.348 36.5124C102.221 36.5124 102.118 36.3352 102.118 36.1214V26.962C102.118 26.7469 102.221 26.5699 102.348 26.5699H104.568C105.402 26.6561 106.161 26.7378 106.856 26.8192C106.844 26.7218 106.831 26.6124 106.813 26.4928L106.806 24.85C106.806 24.805 106.809 24.7624 106.818 24.7247C106.826 24.683 106.834 24.6418 106.842 24.6046C106.148 24.7453 105.384 24.8182 104.568 24.8182H102.348C102.221 24.8182 102.118 24.6418 102.118 24.4269V16.6779C102.118 16.4616 102.221 16.2859 102.348 16.2859C103.828 16.2859 105.381 16.4531 106.967 16.7802C106.915 16.3974 106.89 16.0326 106.89 15.6931C106.89 15.2851 106.915 14.8984 106.969 14.5337H99.4497V14.5335ZM113.434 38.2646H108.87V14.5335L114.74 14.5315C118.697 14.9932 120.727 18.6444 120.942 25.6725C120.676 33.5708 118.149 37.8076 113.434 38.2646ZM117.864 25.6943C117.864 19.1717 116.153 15.8613 112.783 15.8613H111.765C111.64 15.8613 111.537 16.0391 111.537 16.2553V36.5442C111.537 36.7583 111.64 36.9362 111.765 36.9362H112.665C114.387 36.9362 115.702 35.9722 116.572 34.076C117.428 32.2043 117.864 29.3849 117.864 25.6943ZM89.9854 14.5335V38.2644H97.4792C97.4435 37.8333 97.4232 37.4359 97.4232 37.1052C97.4232 36.7292 97.4397 36.3761 97.4721 36.055C96.9549 36.1903 96.3853 36.2986 95.7763 36.3702C95.0628 36.4664 94.1154 36.5124 92.881 36.5124C92.7557 36.5124 92.652 36.3352 92.652 36.1214V26.962C92.652 26.7469 92.7557 26.5699 92.881 26.5699H95.1023C95.9375 26.6561 96.6951 26.7378 97.3905 26.8192C97.3785 26.7218 97.3641 26.6124 97.3476 26.4928L97.3402 24.85C97.3402 24.805 97.3448 24.7624 97.3529 24.7247C97.3602 24.683 97.3676 24.6418 97.3734 24.6046C96.6826 24.7453 95.9196 24.8182 95.1023 24.8182H92.881C92.7557 24.8182 92.652 24.6418 92.652 24.4269V16.6779C92.652 16.4616 92.7557 16.2859 92.881 16.2859C94.3608 16.2859 95.9147 16.4531 97.5004 16.7802C97.4494 16.3974 97.4233 16.0326 97.4233 15.6931C97.4233 15.2851 97.4506 14.8984 97.5017 14.5337H89.9854V14.5335Z" fill="#002D73"/>
<g id="Group">
<g id="Group_2">
<path id="Vector_2" d="M26.2048 26.0324L19.3743 14.3329L16.4652 20.6591L19.6018 26.0322C19.8912 26.5285 19.8912 27.339 19.6018 27.8349L18.6946 29.3885C18.6946 29.3885 19.3064 30.9572 19.3345 31.0516C19.4756 31.5367 19.5097 32.6755 19.1091 33.195L11.975 42.5779C11.9734 45.7266 11.9709 52.2006 11.9738 52.2034C11.975 52.2041 26.205 27.8347 26.205 27.8347C26.4942 27.3385 26.4942 26.5287 26.2048 26.0324Z" fill="#3E8EDE"/>
<path id="Vector_3" d="M10.3403 27.5046C10.0519 27.011 10.0519 26.2012 10.3403 25.7048L11.2487 24.1485L10.6277 22.6197C10.3315 21.9013 10.4248 20.8799 10.8331 20.345L17.9685 10.9615L17.9734 1.34196L17.9693 1.33803L17.9657 1.32947L3.73798 25.7048C3.4484 26.2012 3.4484 27.011 3.73861 27.5069L10.5677 39.2066L13.4776 32.8804L10.3403 27.5046Z" fill="#002D73"/>
</g>
<g id="Group_3">
<g id="Group_4">
<path id="Vector_4" d="M21.5646 7.02789C21.699 7.02789 21.8299 7.16833 21.8901 7.37694C21.9986 7.76042 21.8419 8.10233 21.7557 8.2906L15.5035 21.8854C15.4401 22.0225 15.4348 22.3176 15.4931 22.4593C15.5268 22.5432 18.8685 30.8479 18.9834 31.13C19.1477 31.5352 19.1322 32.5788 18.8048 33.0039L8.75226 46.2245C8.61111 46.4099 8.50642 46.5107 8.35996 46.5131C8.23382 46.4986 8.10736 46.3562 8.05246 46.167C7.94236 45.7839 8.10736 45.4199 8.18653 45.2453L14.437 31.6564C14.5011 31.5094 14.5075 31.229 14.4498 31.0793L10.9607 22.4838C10.7078 21.8676 10.7863 20.9935 11.1358 20.5356L21.1902 7.31323C21.3413 7.11051 21.4499 7.02789 21.5646 7.02789ZM21.5646 6.98328C21.4439 6.98328 21.3306 7.0684 21.1741 7.27772L11.1199 20.4999C10.7587 20.9732 10.678 21.8726 10.9393 22.5093L14.4283 31.1046C14.4797 31.2381 14.4732 31.4987 14.4161 31.6296L8.16601 45.2179C8.08351 45.3999 7.91205 45.7796 8.02913 46.1868C8.08798 46.3901 8.22288 46.5421 8.35819 46.5577C8.51486 46.5553 8.62694 46.4452 8.76798 46.26L18.8206 33.0394C19.1682 32.5883 19.1694 31.5112 19.0049 31.1046C18.8887 30.8191 15.5145 22.434 15.5145 22.434C15.4628 22.3082 15.4677 22.0346 15.5239 21.9131L21.7761 8.31808C21.858 8.13927 22.0301 7.76935 21.9135 7.35731C21.8489 7.13407 21.7097 6.98328 21.5646 6.98328Z" fill="#3E8EDE"/>
</g>
</g>
<g id="Group_5">
<path id="Vector_5" d="M18.644 31.2629C18.725 31.4731 18.7981 32.269 18.5942 32.532L8.54024 45.7544C8.45556 45.8654 8.40139 45.9191 8.37722 45.9157C8.34253 45.9191 8.36764 45.8137 8.45993 45.6097L14.7095 32.0245C14.8676 31.6741 14.8783 31.0996 14.7332 30.742L11.2445 22.1411C11.2445 22.1413 18.5633 31.0518 18.644 31.2629Z" fill="#FFCE00"/>
</g>
<g id="Group_6">
<path id="Vector_6" d="M18.644 31.263L15.2084 22.797C15.0626 22.4381 15.0742 21.8623 15.2304 21.5207L21.481 7.92713C21.5739 7.72459 21.598 7.62341 21.5645 7.62341C21.5397 7.62341 21.4846 7.67302 21.4015 7.78616L11.3472 21.0069C11.1455 21.2728 11.0978 21.7846 11.2445 22.1413L18.644 31.263Z" fill="#FFDE6E"/>
</g>
</g>
</g>
</svg>
